Casino *1995*[BluRay][1080p][ENG, POL]

General information:
Country: USA, France 
Release: 14 November 1995
Genre: Biography, Crime, Drama 
Director: Martin Scorsese
Screenplay: Nicholas Pileggi, Martin Scorsese
Cinematography by: Robert Richardson 
Duration: 2h 58mn
Language: English, Polish 
Subtitles: English, Polish, Czech, German, Portuguese 
Rating: 8.3/10 - 26648 votes 

Cast:
Robert De Niro  ...  Sam 'Ace' Rothstein  
Sharon Stone  ...  Ginger McKenna  
Joe Pesci  ...  Nicky Santoro  
James Woods  ...  Lester Diamond  
Frank Vincent  ...  Frank Marino  
Pasquale Cajano  ...  Remo Gaggi  
Kevin Pollak  ...  Phillip Green  
Don Rickles  ...  Billy Sherbert  
Vinny Vella  ...  Artie Piscano  
Alan King  ...  Andy Stone  
L.Q. Jones  ...  Pat Webb  
Dick Smothers  ...  Senator  
Joseph Rigano  ...  Vincent Borelli  
John Bloom  ...  Don Ward  
Melissa Prophet  ...  Jennifer Santoro  

Plot:
Greed, deception, money, power, and murder occur between two mobster best friends and a trophy wife over a gambling empire. 

Specifications:
General
Format                           : Matroska
Overall bit rate                 : 13.2 Mbps

Video
Format                           : AVC
Format/Info                      : Advanced Video Codec
Format profile                   : High@L4.1
Format settings, CABAC           : Yes
Format settings, ReFrames        : 4 frames
Muxing mode                      : Container profile=Unknown@4.1
Codec ID                         : V_MPEG4/ISO/AVC
Bit rate                         : 11.1 Mbps
Width                            : 1 920 pixels
Height                           : 816 pixels
Display aspect ratio             : 2.35:1
Frame rate                       : 23.976 fps

Audio 1
Format                           : DTS
Format/Info                      : Digital Theater Systems
Codec ID                         : A_DTS
Bit rate mode                    : Constant
Bit rate                         : 1 510 Kbps
Channel(s)                       : 6 channels
Channel positions                : Front: L C R, Side: L R, LFE
Sampling rate                    : 48.0 KHz
Bit depth                        : 24 bits
Stream size                      : 1.88 GiB (11%)
Title                            : English

Audio 2
Format                           : AC-3
Format/Info                      : Audio Coding 3
Mode extension                   : CM (complete main)
Codec ID                         : A_AC3
Bit rate mode                    : Constant
Bit rate                         : 384 Kbps
Channel(s)                       : 6 channels
Channel positions                : Front: L C R, Side: L R, LFE
Sampling rate                    : 48.0 KHz
Stream size                      : 490 MiB (3%)
Title                            : Polish
Language                         : Polish

Audio 3
Format                           : AC-3
Format/Info                      : Audio Coding 3
Format profile                   : Dolby Digital
Mode extension                   : CM (complete main)
Codec ID                         : A_AC3
Bit rate mode                    : Constant
Bit rate                         : 192 Kbps
Channel(s)                       : 2 channels
Channel positions                : Front: L R
Sampling rate                    : 48.0 KHz
Stream size                      : 245 MiB (1%)
Title                            : commentary

Text 
Format                           : UTF-8
Codec ID                         : S_TEXT/UTF8
Codec ID/Info                    : UTF-8 Plain Text
